<svg xmlns="http://www.w3.org/2000/svg" xmlns:xlink="http://www.w3.org/1999/xlink" width="21" height="21" viewBox="0 0 21 21">
  <defs>
    <clipPath id="clip-unlike">
      <rect width="21" height="21"/>
    </clipPath>
  </defs>
  <g id="unlike" clip-path="url(#clip-unlike)">
    <rect width="21" height="21" fill="#fff"/>
    <g id="noun_Heart_972113" transform="translate(1.715 2.616)">
      <g id="Group_68" data-name="Group 68" transform="translate(0 0)">
        <path id="Path_31" data-name="Path 31" d="M5.612,958.4a4.488,4.488,0,0,0-3.261,1.412,4.943,4.943,0,0,0,0,6.775L9.4,974a.538.538,0,0,0,.779,0q3.529-3.7,7.055-7.408a4.941,4.941,0,0,0,0-6.775,4.482,4.482,0,0,0-6.528,0l-.913.953-.913-.958A4.5,4.5,0,0,0,5.612,958.4Zm0,1.053a3.43,3.43,0,0,1,2.488,1.1l1.306,1.373a.538.538,0,0,0,.779,0l1.3-1.367a3.363,3.363,0,0,1,4.97,0,3.875,3.875,0,0,1,0,5.3q-3.334,3.5-6.663,7l-6.663-7a3.876,3.876,0,0,1,0-5.3,3.418,3.418,0,0,1,2.482-1.1Z" transform="translate(-1.007 -958.397)"/>
      </g>
    </g>
  </g>
</svg>
