<?xml version="1.0" encoding="utf-8"?>
<!-- Generator: Adobe Illustrator 24.2.3, SVG Export Plug-In . SVG Version: 6.00 Build 0)  -->
<svg version="1.1" id="Capa_1" xmlns="http://www.w3.org/2000/svg" xmlns:xlink="http://www.w3.org/1999/xlink" x="0px" y="0px"
	 viewBox="0 0 146 90.2" style="enable-background:new 0 0 146 90.2;" xml:space="preserve">
<style type="text/css">
	.st0{enable-background:new    ;}
</style>
<g class="st0">
	<path d="M0.7,1h15.2c8.2,0,10.4,2.6,10.4,11.6v31.6c0,9-2.1,11.6-10.4,11.6h-3.6v32.7H0.7V1z M13.5,44.9c0.9,0,1.1-0.5,1.1-1.9
		V13.9c0-1.4-0.2-1.9-1.1-1.9h-1.2v32.9H13.5z"/>
	<path d="M51.2,78.8c0,8-1.9,10.4-9.2,10.4h-4.4c-7.4,0-9.2-2.4-9.2-10.4v-54c0-8,1.9-10.4,9.2-10.4H42c7.4,0,9.2,2.4,9.2,10.4V78.8
		z M38.7,77.9c0,1.2,0.2,1.6,1,1.6h0.1c0.8,0,1-0.4,1-1.6V25.6c0-1.2-0.2-1.6-1-1.6h-0.1c-0.8,0-1,0.4-1,1.6V77.9z"/>
	<path d="M64.8,63.9c0-3.2-0.5-5.1-4.4-9c-6.4-6.5-7.5-9.4-7.5-18.9V24.8c0-8,1.9-10.4,9.2-10.4h3.6c7.4,0,9.4,2.4,9.4,10.4v17.6
		h-9.8V25.6c0-1.2-0.2-1.6-1-1.6l0,0c-0.8,0-1,0.4-1,1.6v12.6c0,3.2,0.5,5.1,4.4,9c6.4,6.5,7.5,9.4,7.5,18.9v12.6
		c0,8-2,10.4-9.4,10.4h-3.6c-7.4,0-9.2-2.4-9.2-10.4V59.9h9.8v18c0,1.2,0.2,1.6,1,1.6h0.1c0.9,0,1-0.4,1-1.6L64.8,63.9L64.8,63.9z"
		/>
	<path d="M89.4,60.3h9.8v18.5c0,8-2,10.4-9.2,10.4h-3.8c-7.4,0-9.2-2.4-9.2-10.4v-54c0-8,1.9-10.4,9.2-10.4h3.8
		c7.2,0,9.2,2.4,9.2,10.4v31H87.3v22.1c0,1.2,0.2,1.6,1,1.6h0.1c0.8,0,1-0.4,1-1.6V60.3z M89.4,25.6c0-1.2-0.2-1.6-1-1.6h-0.1
		c-0.8,0-1,0.4-1,1.6v20.9h2.1V25.6z"/>
	<path d="M116.8,57.8h-15.5V48h15.5V57.8z"/>
	<path d="M118.8,1h10.4v10.9h-10.4C118.8,11.9,118.8,1,118.8,1z M129.2,88.5h-10.4V15h10.4V88.5z"/>
	<path d="M130.4,15h1.8V4.4h10.4V15h2.6v9.6h-2.6v55.2c0,3.2,0.2,6.1,1.2,8.6h-10.6c-0.9-1.5-1-4.5-1-7.6V24.6h-1.8L130.4,15
		L130.4,15z"/>
</g>
</svg>
